<?xml version="1.0" standalone="no"?><svg xmlns="http://www.w3.org/2000/svg" viewBox="0 0 1440 320"><path fill="#a2d9ff" fill-opacity="1" d="M0,64L30,96C60,128,120,192,180,218.7C240,245,300,235,360,202.7C420,171,480,117,540,128C600,139,660,213,720,234.7C780,256,840,224,900,192C960,160,1020,128,1080,101.3C1140,75,1200,53,1260,42.7C1320,32,1380,32,1410,32L1440,32L1440,0L1410,0C1380,0,1320,0,1260,0C1200,0,1140,0,1080,0C1020,0,960,0,900,0C840,0,780,0,720,0C660,0,600,0,540,0C480,0,420,0,360,0C300,0,240,0,180,0C120,0,60,0,30,0L0,0Z"></path></svg>