<?xml version="1.0" standalone="no"?>
<svg xmlns:xlink="http://www.w3.org/1999/xlink" id="wave" style="transform:rotate(0deg); transition: 0.3s" viewBox="0 0 1440 420" version="1.1" xmlns="http://www.w3.org/2000/svg"><defs><linearGradient id="sw-gradient-0" x1="0" x2="0" y1="1" y2="0"><stop stop-color="rgba(241, 245, 249, 1)" offset="0%"/><stop stop-color="rgba(34, 128, 191, 1)" offset="100%"/></linearGradient></defs><path style="transform:translate(0, 0px); opacity:1" fill="url(#sw-gradient-0)" d="M0,210L48,196C96,182,192,154,288,168C384,182,480,238,576,224C672,210,768,126,864,105C960,84,1056,126,1152,147C1248,168,1344,168,1440,175C1536,182,1632,196,1728,210C1824,224,1920,238,2016,238C2112,238,2208,224,2304,224C2400,224,2496,238,2592,252C2688,266,2784,280,2880,301C2976,322,3072,350,3168,308C3264,266,3360,154,3456,147C3552,140,3648,238,3744,294C3840,350,3936,364,4032,336C4128,308,4224,238,4320,224C4416,210,4512,252,4608,238C4704,224,4800,154,4896,147C4992,140,5088,196,5184,182C5280,168,5376,84,5472,77C5568,70,5664,140,5760,140C5856,140,5952,70,6048,56C6144,42,6240,84,6336,84C6432,84,6528,42,6624,35C6720,28,6816,56,6864,70L6912,84L6912,420L6864,420C6816,420,6720,420,6624,420C6528,420,6432,420,6336,420C6240,420,6144,420,6048,420C5952,420,5856,420,5760,420C5664,420,5568,420,5472,420C5376,420,5280,420,5184,420C5088,420,4992,420,4896,420C4800,420,4704,420,4608,420C4512,420,4416,420,4320,420C4224,420,4128,420,4032,420C3936,420,3840,420,3744,420C3648,420,3552,420,3456,420C3360,420,3264,420,3168,420C3072,420,2976,420,2880,420C2784,420,2688,420,2592,420C2496,420,2400,420,2304,420C2208,420,2112,420,2016,420C1920,420,1824,420,1728,420C1632,420,1536,420,1440,420C1344,420,1248,420,1152,420C1056,420,960,420,864,420C768,420,672,420,576,420C480,420,384,420,288,420C192,420,96,420,48,420L0,420Z"/></svg>