<?xml version="1.0" standalone="no"?>
<svg xmlns:xlink="http://www.w3.org/1999/xlink" id="wave" style="transform:rotate(0deg); transition: 0.3s" viewBox="0 0 1440 280" version="1.1" xmlns="http://www.w3.org/2000/svg"><defs><linearGradient id="sw-gradient-0" x1="0" x2="0" y1="1" y2="0"><stop stop-color="rgba(241, 245, 249, 1)" offset="0%"/><stop stop-color="rgba(34, 128, 191, 1)" offset="100%"/></linearGradient></defs><path style="transform:translate(0, 0px); opacity:1" fill="url(#sw-gradient-0)" d="M0,224L60,200.7C120,177,240,131,360,135.3C480,140,600,196,720,224C840,252,960,252,1080,233.3C1200,215,1320,177,1440,140C1560,103,1680,65,1800,79.3C1920,93,2040,159,2160,172.7C2280,187,2400,149,2520,140C2640,131,2760,149,2880,135.3C3000,121,3120,75,3240,60.7C3360,47,3480,65,3600,88.7C3720,112,3840,140,3960,168C4080,196,4200,224,4320,210C4440,196,4560,140,4680,98C4800,56,4920,28,5040,28C5160,28,5280,56,5400,74.7C5520,93,5640,103,5760,98C5880,93,6000,75,6120,88.7C6240,103,6360,149,6480,149.3C6600,149,6720,103,6840,112C6960,121,7080,187,7200,177.3C7320,168,7440,84,7560,42C7680,0,7800,0,7920,18.7C8040,37,8160,75,8280,88.7C8400,103,8520,93,8580,88.7L8640,84L8640,280L8580,280C8520,280,8400,280,8280,280C8160,280,8040,280,7920,280C7800,280,7680,280,7560,280C7440,280,7320,280,7200,280C7080,280,6960,280,6840,280C6720,280,6600,280,6480,280C6360,280,6240,280,6120,280C6000,280,5880,280,5760,280C5640,280,5520,280,5400,280C5280,280,5160,280,5040,280C4920,280,4800,280,4680,280C4560,280,4440,280,4320,280C4200,280,4080,280,3960,280C3840,280,3720,280,3600,280C3480,280,3360,280,3240,280C3120,280,3000,280,2880,280C2760,280,2640,280,2520,280C2400,280,2280,280,2160,280C2040,280,1920,280,1800,280C1680,280,1560,280,1440,280C1320,280,1200,280,1080,280C960,280,840,280,720,280C600,280,480,280,360,280C240,280,120,280,60,280L0,280Z"/></svg>