<?xml version="1.0" standalone="no"?>
<svg xmlns:xlink="http://www.w3.org/1999/xlink" id="wave" style="transform:rotate(0deg); transition: 0.3s" viewBox="0 0 1440 300" version="1.1" xmlns="http://www.w3.org/2000/svg"><defs><linearGradient id="sw-gradient-0" x1="0" x2="0" y1="1" y2="0"><stop stop-color="rgba(241, 245, 249, 1)" offset="0%"/><stop stop-color="rgba(34, 128, 191, 1)" offset="100%"/></linearGradient></defs><path style="transform:translate(0, 0px); opacity:1" fill="url(#sw-gradient-0)" d="M0,150L48,140C96,130,192,110,288,120C384,130,480,170,576,160C672,150,768,90,864,75C960,60,1056,90,1152,105C1248,120,1344,120,1440,125C1536,130,1632,140,1728,150C1824,160,1920,170,2016,170C2112,170,2208,160,2304,160C2400,160,2496,170,2592,180C2688,190,2784,200,2880,215C2976,230,3072,250,3168,220C3264,190,3360,110,3456,105C3552,100,3648,170,3744,210C3840,250,3936,260,4032,240C4128,220,4224,170,4320,160C4416,150,4512,180,4608,170C4704,160,4800,110,4896,105C4992,100,5088,140,5184,130C5280,120,5376,60,5472,55C5568,50,5664,100,5760,100C5856,100,5952,50,6048,40C6144,30,6240,60,6336,60C6432,60,6528,30,6624,25C6720,20,6816,40,6864,50L6912,60L6912,300L6864,300C6816,300,6720,300,6624,300C6528,300,6432,300,6336,300C6240,300,6144,300,6048,300C5952,300,5856,300,5760,300C5664,300,5568,300,5472,300C5376,300,5280,300,5184,300C5088,300,4992,300,4896,300C4800,300,4704,300,4608,300C4512,300,4416,300,4320,300C4224,300,4128,300,4032,300C3936,300,3840,300,3744,300C3648,300,3552,300,3456,300C3360,300,3264,300,3168,300C3072,300,2976,300,2880,300C2784,300,2688,300,2592,300C2496,300,2400,300,2304,300C2208,300,2112,300,2016,300C1920,300,1824,300,1728,300C1632,300,1536,300,1440,300C1344,300,1248,300,1152,300C1056,300,960,300,864,300C768,300,672,300,576,300C480,300,384,300,288,300C192,300,96,300,48,300L0,300Z"/></svg>