<?xml version="1.0" standalone="no"?>
<svg xmlns:xlink="http://www.w3.org/1999/xlink" id="wave" style="transform:rotate(0deg); transition: 0.3s" viewBox="0 0 1440 220" version="1.1" xmlns="http://www.w3.org/2000/svg"><defs><linearGradient id="sw-gradient-0" x1="0" x2="0" y1="1" y2="0"><stop stop-color="rgba(241, 245, 249, 1)" offset="0%"/><stop stop-color="rgba(34, 128, 191, 1)" offset="100%"/></linearGradient></defs><path style="transform:translate(0, 0px); opacity:1" fill="url(#sw-gradient-0)" d="M0,110L48,102.7C96,95,192,81,288,88C384,95,480,125,576,117.3C672,110,768,66,864,55C960,44,1056,66,1152,77C1248,88,1344,88,1440,91.7C1536,95,1632,103,1728,110C1824,117,1920,125,2016,124.7C2112,125,2208,117,2304,117.3C2400,117,2496,125,2592,132C2688,139,2784,147,2880,157.7C2976,169,3072,183,3168,161.3C3264,139,3360,81,3456,77C3552,73,3648,125,3744,154C3840,183,3936,191,4032,176C4128,161,4224,125,4320,117.3C4416,110,4512,132,4608,124.7C4704,117,4800,81,4896,77C4992,73,5088,103,5184,95.3C5280,88,5376,44,5472,40.3C5568,37,5664,73,5760,73.3C5856,73,5952,37,6048,29.3C6144,22,6240,44,6336,44C6432,44,6528,22,6624,18.3C6720,15,6816,29,6864,36.7L6912,44L6912,220L6864,220C6816,220,6720,220,6624,220C6528,220,6432,220,6336,220C6240,220,6144,220,6048,220C5952,220,5856,220,5760,220C5664,220,5568,220,5472,220C5376,220,5280,220,5184,220C5088,220,4992,220,4896,220C4800,220,4704,220,4608,220C4512,220,4416,220,4320,220C4224,220,4128,220,4032,220C3936,220,3840,220,3744,220C3648,220,3552,220,3456,220C3360,220,3264,220,3168,220C3072,220,2976,220,2880,220C2784,220,2688,220,2592,220C2496,220,2400,220,2304,220C2208,220,2112,220,2016,220C1920,220,1824,220,1728,220C1632,220,1536,220,1440,220C1344,220,1248,220,1152,220C1056,220,960,220,864,220C768,220,672,220,576,220C480,220,384,220,288,220C192,220,96,220,48,220L0,220Z"/></svg>