<?xml version="1.0" standalone="no"?>
<svg xmlns:xlink="http://www.w3.org/1999/xlink" id="wave" style="transform:rotate(180deg); transition: 0.3s" viewBox="0 0 1440 490" version="1.1" xmlns="http://www.w3.org/2000/svg"><defs><linearGradient id="sw-gradient-0" x1="0" x2="0" y1="1" y2="0"><stop stop-color="rgba(15, 58, 87, 1)" offset="0%"/><stop stop-color="rgba(151, 202, 237, 1)" offset="100%"/></linearGradient></defs><path style="transform:translate(0, 0px); opacity:1" fill="url(#sw-gradient-0)" d="M0,392L26.7,400.2C53.3,408,107,425,160,424.7C213.3,425,267,408,320,408.3C373.3,408,427,425,480,383.8C533.3,343,587,245,640,179.7C693.3,114,747,82,800,65.3C853.3,49,907,49,960,73.5C1013.3,98,1067,147,1120,138.8C1173.3,131,1227,65,1280,89.8C1333.3,114,1387,229,1440,261.3C1493.3,294,1547,245,1600,220.5C1653.3,196,1707,196,1760,212.3C1813.3,229,1867,261,1920,261.3C1973.3,261,2027,229,2080,196C2133.3,163,2187,131,2240,147C2293.3,163,2347,229,2400,269.5C2453.3,310,2507,327,2560,277.7C2613.3,229,2667,114,2720,81.7C2773.3,49,2827,98,2880,155.2C2933.3,212,2987,278,3040,294C3093.3,310,3147,278,3200,269.5C3253.3,261,3307,278,3360,236.8C3413.3,196,3467,98,3520,73.5C3573.3,49,3627,98,3680,155.2C3733.3,212,3787,278,3813,310.3L3840,343L3840,490L3813.3,490C3786.7,490,3733,490,3680,490C3626.7,490,3573,490,3520,490C3466.7,490,3413,490,3360,490C3306.7,490,3253,490,3200,490C3146.7,490,3093,490,3040,490C2986.7,490,2933,490,2880,490C2826.7,490,2773,490,2720,490C2666.7,490,2613,490,2560,490C2506.7,490,2453,490,2400,490C2346.7,490,2293,490,2240,490C2186.7,490,2133,490,2080,490C2026.7,490,1973,490,1920,490C1866.7,490,1813,490,1760,490C1706.7,490,1653,490,1600,490C1546.7,490,1493,490,1440,490C1386.7,490,1333,490,1280,490C1226.7,490,1173,490,1120,490C1066.7,490,1013,490,960,490C906.7,490,853,490,800,490C746.7,490,693,490,640,490C586.7,490,533,490,480,490C426.7,490,373,490,320,490C266.7,490,213,490,160,490C106.7,490,53,490,27,490L0,490Z"/></svg>