<?xml version="1.0" standalone="no"?>
<svg xmlns:xlink="http://www.w3.org/1999/xlink" id="wave" style="transform:rotate(0deg); transition: 0.3s" viewBox="0 0 1440 350" version="1.1" xmlns="http://www.w3.org/2000/svg"><defs><linearGradient id="sw-gradient-0" x1="0" x2="0" y1="1" y2="0"><stop stop-color="rgba(241, 245, 249, 1)" offset="0%"/><stop stop-color="rgba(34, 128, 191, 1)" offset="100%"/></linearGradient></defs><path style="transform:translate(0, 0px); opacity:1" fill="url(#sw-gradient-0)" d="M0,105L60,122.5C120,140,240,175,360,169.2C480,163,600,117,720,110.8C840,105,960,140,1080,180.8C1200,222,1320,268,1440,250.8C1560,233,1680,152,1800,99.2C1920,47,2040,23,2160,29.2C2280,35,2400,70,2520,110.8C2640,152,2760,198,2880,192.5C3000,187,3120,128,3240,128.3C3360,128,3480,187,3600,180.8C3720,175,3840,105,3960,87.5C4080,70,4200,105,4320,134.2C4440,163,4560,187,4680,192.5C4800,198,4920,187,5040,186.7C5160,187,5280,198,5400,221.7C5520,245,5640,280,5760,268.3C5880,257,6000,198,6120,157.5C6240,117,6360,93,6480,70C6600,47,6720,23,6840,64.2C6960,105,7080,210,7200,239.2C7320,268,7440,222,7560,192.5C7680,163,7800,152,7920,157.5C8040,163,8160,187,8280,192.5C8400,198,8520,187,8580,180.8L8640,175L8640,350L8580,350C8520,350,8400,350,8280,350C8160,350,8040,350,7920,350C7800,350,7680,350,7560,350C7440,350,7320,350,7200,350C7080,350,6960,350,6840,350C6720,350,6600,350,6480,350C6360,350,6240,350,6120,350C6000,350,5880,350,5760,350C5640,350,5520,350,5400,350C5280,350,5160,350,5040,350C4920,350,4800,350,4680,350C4560,350,4440,350,4320,350C4200,350,4080,350,3960,350C3840,350,3720,350,3600,350C3480,350,3360,350,3240,350C3120,350,3000,350,2880,350C2760,350,2640,350,2520,350C2400,350,2280,350,2160,350C2040,350,1920,350,1800,350C1680,350,1560,350,1440,350C1320,350,1200,350,1080,350C960,350,840,350,720,350C600,350,480,350,360,350C240,350,120,350,60,350L0,350Z"/></svg>