<?xml version="1.0" standalone="no"?>
<svg xmlns:xlink="http://www.w3.org/1999/xlink" id="wave" style="transform:rotate(0deg); transition: 0.3s" viewBox="0 0 1440 490" version="1.1" xmlns="http://www.w3.org/2000/svg"><defs><linearGradient id="sw-gradient-0" x1="0" x2="0" y1="1" y2="0"><stop stop-color="rgba(241, 245, 249, 1)" offset="0%"/><stop stop-color="rgba(34, 128, 191, 1)" offset="100%"/></linearGradient></defs><path style="transform:translate(0, 0px); opacity:1" fill="url(#sw-gradient-0)" d="M0,245L48,212.3C96,180,192,114,288,147C384,180,480,310,576,326.7C672,343,768,245,864,187.8C960,131,1056,114,1152,122.5C1248,131,1344,163,1440,171.5C1536,180,1632,163,1728,187.8C1824,212,1920,278,2016,302.2C2112,327,2208,310,2304,302.2C2400,294,2496,294,2592,261.3C2688,229,2784,163,2880,122.5C2976,82,3072,65,3168,81.7C3264,98,3360,147,3456,155.2C3552,163,3648,131,3744,106.2C3840,82,3936,65,4032,106.2C4128,147,4224,245,4320,277.7C4416,310,4512,278,4608,228.7C4704,180,4800,114,4896,89.8C4992,65,5088,82,5184,147C5280,212,5376,327,5472,375.7C5568,425,5664,408,5760,375.7C5856,343,5952,294,6048,245C6144,196,6240,147,6336,106.2C6432,65,6528,33,6624,40.8C6720,49,6816,98,6864,122.5L6912,147L6912,490L6864,490C6816,490,6720,490,6624,490C6528,490,6432,490,6336,490C6240,490,6144,490,6048,490C5952,490,5856,490,5760,490C5664,490,5568,490,5472,490C5376,490,5280,490,5184,490C5088,490,4992,490,4896,490C4800,490,4704,490,4608,490C4512,490,4416,490,4320,490C4224,490,4128,490,4032,490C3936,490,3840,490,3744,490C3648,490,3552,490,3456,490C3360,490,3264,490,3168,490C3072,490,2976,490,2880,490C2784,490,2688,490,2592,490C2496,490,2400,490,2304,490C2208,490,2112,490,2016,490C1920,490,1824,490,1728,490C1632,490,1536,490,1440,490C1344,490,1248,490,1152,490C1056,490,960,490,864,490C768,490,672,490,576,490C480,490,384,490,288,490C192,490,96,490,48,490L0,490Z"/></svg>