<?xml version="1.0" standalone="no"?>
<svg xmlns:xlink="http://www.w3.org/1999/xlink" id="wave" style="transform:rotate(0deg); transition: 0.3s" viewBox="0 0 1440 490" version="1.1" xmlns="http://www.w3.org/2000/svg"><defs><linearGradient id="sw-gradient-0" x1="0" x2="0" y1="1" y2="0"><stop stop-color="rgba(241, 245, 249, 1)" offset="0%"/><stop stop-color="rgba(34, 128, 191, 1)" offset="100%"/></linearGradient></defs><path style="transform:translate(0, 0px); opacity:1" fill="url(#sw-gradient-0)" d="M0,49L30,57.2C60,65,120,82,180,130.7C240,180,300,261,360,294C420,327,480,310,540,269.5C600,229,660,163,720,187.8C780,212,840,327,900,359.3C960,392,1020,343,1080,285.8C1140,229,1200,163,1260,138.8C1320,114,1380,131,1440,138.8C1500,147,1560,147,1620,171.5C1680,196,1740,245,1800,236.8C1860,229,1920,163,1980,122.5C2040,82,2100,65,2160,65.3C2220,65,2280,82,2340,81.7C2400,82,2460,65,2520,122.5C2580,180,2640,310,2700,367.5C2760,425,2820,408,2880,334.8C2940,261,3000,131,3060,106.2C3120,82,3180,163,3240,220.5C3300,278,3360,310,3420,294C3480,278,3540,212,3600,204.2C3660,196,3720,245,3780,277.7C3840,310,3900,327,3960,326.7C4020,327,4080,310,4140,310.3C4200,310,4260,327,4290,334.8L4320,343L4320,490L4290,490C4260,490,4200,490,4140,490C4080,490,4020,490,3960,490C3900,490,3840,490,3780,490C3720,490,3660,490,3600,490C3540,490,3480,490,3420,490C3360,490,3300,490,3240,490C3180,490,3120,490,3060,490C3000,490,2940,490,2880,490C2820,490,2760,490,2700,490C2640,490,2580,490,2520,490C2460,490,2400,490,2340,490C2280,490,2220,490,2160,490C2100,490,2040,490,1980,490C1920,490,1860,490,1800,490C1740,490,1680,490,1620,490C1560,490,1500,490,1440,490C1380,490,1320,490,1260,490C1200,490,1140,490,1080,490C1020,490,960,490,900,490C840,490,780,490,720,490C660,490,600,490,540,490C480,490,420,490,360,490C300,490,240,490,180,490C120,490,60,490,30,490L0,490Z"/></svg>