<?xml version="1.0" standalone="no"?><svg xmlns="http://www.w3.org/2000/svg" viewBox="0 0 1440 320"><path fill="#63b0e3" fill-opacity="1" d="M0,64L34.3,74.7C68.6,85,137,107,206,144C274.3,181,343,235,411,224C480,213,549,139,617,128C685.7,117,754,171,823,208C891.4,245,960,267,1029,240C1097.1,213,1166,139,1234,101.3C1302.9,64,1371,64,1406,64L1440,64L1440,0L1405.7,0C1371.4,0,1303,0,1234,0C1165.7,0,1097,0,1029,0C960,0,891,0,823,0C754.3,0,686,0,617,0C548.6,0,480,0,411,0C342.9,0,274,0,206,0C137.1,0,69,0,34,0L0,0Z"></path></svg>